G04 #@! TF.FileFunction,Copper,L2,Bot,Signal*
%FSLAX46Y46*%
G04 Gerber Fmt 4.6, Leading zero omitted, Abs format (unit mm)*
G04 Created by KiCad (PCBNEW 4.0.7) date 10/18/21 01:13:05*
%MOMM*%
%LPD*%
G01*
G04 APERTURE LIST*
%ADD10C,0.100000*%
%ADD11R,1.600000X1.600000*%
%ADD12O,1.600000X1.600000*%
%ADD13C,1.600000*%
%ADD14C,2.000000*%
%ADD15R,1.800000X1.800000*%
%ADD16O,1.800000X1.800000*%
%ADD17C,1.500000*%
%ADD18C,1.574800*%
%ADD19C,1.524000*%
%ADD20C,0.600000*%
%ADD21C,0.350000*%
%ADD22C,0.250000*%
%ADD23C,0.500000*%
G04 APERTURE END LIST*
D10*
D11*
X144780000Y-92710000D03*
D12*
X177800000Y-85090000D03*
X147320000Y-92710000D03*
X175260000Y-85090000D03*
X149860000Y-92710000D03*
X172720000Y-85090000D03*
X152400000Y-92710000D03*
X170180000Y-85090000D03*
X154940000Y-92710000D03*
X167640000Y-85090000D03*
X157480000Y-92710000D03*
X165100000Y-85090000D03*
X160020000Y-92710000D03*
X162560000Y-85090000D03*
X162560000Y-92710000D03*
X160020000Y-85090000D03*
X165100000Y-92710000D03*
X157480000Y-85090000D03*
X167640000Y-92710000D03*
X154940000Y-85090000D03*
X170180000Y-92710000D03*
X152400000Y-85090000D03*
X172720000Y-92710000D03*
X149860000Y-85090000D03*
X175260000Y-92710000D03*
X147320000Y-85090000D03*
X177800000Y-92710000D03*
X144780000Y-85090000D03*
D13*
X141190000Y-84060000D03*
X141190000Y-86560000D03*
X174010000Y-81580000D03*
X176510000Y-81580000D03*
X181230000Y-81670000D03*
X183730000Y-81670000D03*
X180170000Y-96180000D03*
X182670000Y-96180000D03*
X176900000Y-96200000D03*
X174400000Y-96200000D03*
D11*
X131060000Y-94220000D03*
D12*
X138680000Y-94220000D03*
D13*
X137910000Y-83540000D03*
D12*
X137910000Y-91160000D03*
D14*
X186720000Y-92120000D03*
X191220000Y-92120000D03*
X186720000Y-98620000D03*
X191220000Y-98620000D03*
D15*
X133360000Y-85270000D03*
D16*
X133360000Y-87810000D03*
X133360000Y-90350000D03*
D17*
X182460000Y-86560000D03*
X182460000Y-91440000D03*
D13*
X141180000Y-89270000D03*
X141180000Y-94270000D03*
D18*
X133350000Y-81280000D03*
X133350000Y-96520000D03*
X135890000Y-81280000D03*
X135890000Y-96520000D03*
X138430000Y-81280000D03*
X138430000Y-96520000D03*
X140970000Y-81280000D03*
X140970000Y-96520000D03*
X143510000Y-81280000D03*
X143510000Y-96520000D03*
X146050000Y-81280000D03*
X146050000Y-96520000D03*
X148590000Y-81280000D03*
X148590000Y-96520000D03*
X151130000Y-81280000D03*
X151130000Y-96520000D03*
X153670000Y-81280000D03*
X153670000Y-96520000D03*
X156210000Y-81280000D03*
X156210000Y-96520000D03*
X158750000Y-81280000D03*
X158750000Y-96520000D03*
X161290000Y-81280000D03*
X161290000Y-96520000D03*
X163830000Y-81280000D03*
X163830000Y-96520000D03*
X166370000Y-81280000D03*
X166370000Y-96520000D03*
X168910000Y-81280000D03*
X168910000Y-96520000D03*
D19*
X124460000Y-86360000D03*
X127000000Y-86360000D03*
X124460000Y-88900000D03*
X127000000Y-88900000D03*
X124460000Y-91440000D03*
X127000000Y-91440000D03*
X190500000Y-81280000D03*
X190500000Y-83820000D03*
X190500000Y-86360000D03*
X190500000Y-88900000D03*
D20*
X133790000Y-79710000D03*
X132230000Y-79400000D03*
X131320000Y-80050000D03*
X130480000Y-82280000D03*
X130230000Y-84180000D03*
X129750000Y-85600000D03*
X129250000Y-89520000D03*
X128750000Y-90830000D03*
X159980000Y-89920000D03*
X160290000Y-87840000D03*
X158480000Y-87030000D03*
X155540000Y-87090000D03*
X153560000Y-86980000D03*
X151600000Y-86870000D03*
X149840000Y-86780000D03*
X147800000Y-86810000D03*
X145460000Y-86810000D03*
X182372000Y-77724000D03*
X180848000Y-78232000D03*
X179324000Y-78232000D03*
X177800000Y-78232000D03*
X189484000Y-79248000D03*
X187960000Y-78740000D03*
X186436000Y-78232000D03*
X184404000Y-78232000D03*
X189484000Y-96520000D03*
X189484000Y-94488000D03*
X189484000Y-92456000D03*
X188976000Y-90932000D03*
X187960000Y-89916000D03*
X187960000Y-87376000D03*
X186944000Y-85344000D03*
X185928000Y-83820000D03*
X123670000Y-94690000D03*
X124460000Y-96520000D03*
X124968000Y-97536000D03*
X125984000Y-98552000D03*
X127508000Y-99060000D03*
X129032000Y-99568000D03*
X131064000Y-99060000D03*
X134250000Y-99080000D03*
X136700000Y-99060000D03*
X137668000Y-99060000D03*
X139700000Y-99060000D03*
X142180000Y-99050000D03*
X143010000Y-89900000D03*
X136570000Y-85920000D03*
X171860000Y-78760000D03*
X169050000Y-88160000D03*
X166680000Y-91310000D03*
X168040000Y-77382000D03*
X169800000Y-78050000D03*
X171390000Y-87440000D03*
X171510000Y-91360000D03*
X144410000Y-88000000D03*
D21*
X141190000Y-84060000D02*
X141000000Y-84060000D01*
X141000000Y-84060000D02*
X139670000Y-82730000D01*
X134850000Y-79780000D02*
X133350000Y-81280000D01*
X139180000Y-79780000D02*
X134850000Y-79780000D01*
X139670000Y-80270000D02*
X139180000Y-79780000D01*
X139670000Y-82730000D02*
X139670000Y-80270000D01*
X133360000Y-85270000D02*
X133360000Y-81290000D01*
X133360000Y-81290000D02*
X133350000Y-81280000D01*
X140540000Y-84050000D02*
X141190000Y-84060000D01*
X133350000Y-81280000D02*
X133350000Y-80640000D01*
X133200000Y-81430000D02*
X133350000Y-81280000D01*
X190500000Y-86360000D02*
X190050000Y-86360000D01*
X190050000Y-86360000D02*
X188960000Y-85270000D01*
X188960000Y-85270000D02*
X188960000Y-83710000D01*
X188960000Y-83710000D02*
X184980000Y-80070000D01*
X184980000Y-80070000D02*
X183930000Y-80070000D01*
X145820000Y-90670000D02*
X140340000Y-90670000D01*
X133350000Y-93860000D02*
X133350000Y-96520000D01*
X135030000Y-92180000D02*
X133350000Y-93860000D01*
X135030000Y-89550000D02*
X135030000Y-92180000D01*
X136120000Y-88460000D02*
X135030000Y-89550000D01*
X138810000Y-88460000D02*
X136120000Y-88460000D01*
X139640000Y-89290000D02*
X138810000Y-88460000D01*
X139640000Y-89970000D02*
X139640000Y-89290000D01*
X140340000Y-90670000D02*
X139640000Y-89970000D01*
X133350000Y-96520000D02*
X133660000Y-96520000D01*
X146140000Y-90670000D02*
X145820000Y-90670000D01*
X145820000Y-90670000D02*
X145450000Y-90670000D01*
X145590000Y-80070000D02*
X183930000Y-80070000D01*
X144780000Y-80540000D02*
X145590000Y-80070000D01*
X144780000Y-82670000D02*
X144780000Y-80540000D01*
X143300000Y-84150000D02*
X144780000Y-82670000D01*
X143300000Y-88520000D02*
X143300000Y-84150000D01*
X145450000Y-90670000D02*
X143300000Y-88520000D01*
X146140000Y-90670000D02*
X147820000Y-90670000D01*
X147820000Y-90670000D02*
X149860000Y-92710000D01*
X132260000Y-79370000D02*
X133790000Y-79710000D01*
X132230000Y-79400000D02*
X132260000Y-79370000D01*
X131320000Y-81440000D02*
X131320000Y-80050000D01*
X130480000Y-82280000D02*
X131320000Y-81440000D01*
X129840000Y-85510000D02*
X130230000Y-84180000D01*
X129750000Y-85600000D02*
X129840000Y-85510000D01*
X129250000Y-90330000D02*
X129250000Y-89520000D01*
X128750000Y-90830000D02*
X129250000Y-90330000D01*
X159980000Y-89920000D02*
X160290000Y-89610000D01*
X160290000Y-89610000D02*
X160290000Y-87840000D01*
X159290000Y-87840000D02*
X160290000Y-87840000D01*
X158480000Y-87030000D02*
X159290000Y-87840000D01*
X153670000Y-87090000D02*
X155540000Y-87090000D01*
X153560000Y-86980000D02*
X153670000Y-87090000D01*
X149930000Y-86870000D02*
X151600000Y-86870000D01*
X149840000Y-86780000D02*
X149930000Y-86870000D01*
X145460000Y-86810000D02*
X147800000Y-86810000D01*
X181356000Y-77724000D02*
X182372000Y-77724000D01*
X180848000Y-78232000D02*
X181356000Y-77724000D01*
X177800000Y-78232000D02*
X179324000Y-78232000D01*
X188468000Y-79248000D02*
X189484000Y-79248000D01*
X187960000Y-78740000D02*
X188468000Y-79248000D01*
X184404000Y-78232000D02*
X186436000Y-78232000D01*
X191220000Y-98620000D02*
X191220000Y-98256000D01*
X191220000Y-98256000D02*
X189484000Y-96520000D01*
X189484000Y-94488000D02*
X189484000Y-92456000D01*
X188976000Y-90932000D02*
X188468000Y-90424000D01*
X188468000Y-90424000D02*
X187960000Y-89916000D01*
X187960000Y-87376000D02*
X186944000Y-86360000D01*
X186944000Y-86360000D02*
X186944000Y-85344000D01*
X185928000Y-83820000D02*
X183778000Y-81670000D01*
X183778000Y-81670000D02*
X183730000Y-81670000D01*
X123670000Y-94690000D02*
X124460000Y-96520000D01*
X124968000Y-97536000D02*
X125984000Y-98552000D01*
X127508000Y-99060000D02*
X128016000Y-99568000D01*
X128016000Y-99568000D02*
X129032000Y-99568000D01*
X131064000Y-99060000D02*
X134250000Y-99080000D01*
X136700000Y-99060000D02*
X137668000Y-99060000D01*
X139700000Y-99060000D02*
X142180000Y-99050000D01*
X190500000Y-83820000D02*
X190100000Y-83820000D01*
X190100000Y-83820000D02*
X185430000Y-79500000D01*
X185430000Y-79500000D02*
X184129998Y-79499998D01*
X147320000Y-92710000D02*
X146990000Y-92710000D01*
X146990000Y-92710000D02*
X145560000Y-91280000D01*
X135890000Y-90200000D02*
X135890000Y-96520000D01*
X136770000Y-89320000D02*
X135890000Y-90200000D01*
X138330000Y-89320000D02*
X136770000Y-89320000D01*
X138970000Y-89960000D02*
X138330000Y-89320000D01*
X138970000Y-90330000D02*
X138970000Y-89960000D01*
X139920000Y-91280000D02*
X138970000Y-90330000D01*
X145560000Y-91280000D02*
X139920000Y-91280000D01*
X143480002Y-79499998D02*
X184129998Y-79499998D01*
X142210000Y-80490000D02*
X143480002Y-79499998D01*
X142210000Y-82510000D02*
X142210000Y-80490000D01*
X142720000Y-83020000D02*
X142210000Y-82510000D01*
X142720000Y-89610000D02*
X142720000Y-83020000D01*
X143010000Y-89900000D02*
X142720000Y-89610000D01*
X174400000Y-96200000D02*
X174400000Y-97660000D01*
X175300000Y-98560000D02*
X186660000Y-98560000D01*
X174400000Y-97660000D02*
X175300000Y-98560000D01*
X186660000Y-98560000D02*
X186720000Y-98620000D01*
X186720000Y-92120000D02*
X186720000Y-98620000D01*
X136210000Y-82980000D02*
X137910000Y-81280000D01*
X136210000Y-85560000D02*
X136210000Y-82980000D01*
X136570000Y-85920000D02*
X136210000Y-85560000D01*
X137910000Y-81280000D02*
X138430000Y-81280000D01*
X140710000Y-98100000D02*
X129640000Y-98100000D01*
X124460000Y-92920000D02*
X124460000Y-91440000D01*
X129640000Y-98100000D02*
X124460000Y-92920000D01*
X138430000Y-96520000D02*
X138590000Y-94310000D01*
X138590000Y-94310000D02*
X138680000Y-94220000D01*
X138680000Y-94220000D02*
X138680000Y-93920000D01*
X138680000Y-93920000D02*
X139220000Y-92710000D01*
X139220000Y-92710000D02*
X144780000Y-92710000D01*
X138680000Y-94220000D02*
X138520000Y-91770000D01*
X138520000Y-91770000D02*
X137910000Y-91160000D01*
X174400000Y-96200000D02*
X174275000Y-96200000D01*
X174275000Y-96200000D02*
X171044998Y-99430002D01*
X171044998Y-99430002D02*
X157730002Y-99430002D01*
X157730002Y-99430002D02*
X156400000Y-98100000D01*
X156400000Y-98100000D02*
X140710000Y-98100000D01*
X140710000Y-98100000D02*
X140010000Y-98100000D01*
X140010000Y-98100000D02*
X138430000Y-96520000D01*
X143510000Y-96520000D02*
X143510000Y-96330000D01*
X143510000Y-96330000D02*
X145470000Y-94370000D01*
X145470000Y-94370000D02*
X150740000Y-94370000D01*
X150740000Y-94370000D02*
X152400000Y-92710000D01*
X146050000Y-96520000D02*
X146050000Y-96510000D01*
X146050000Y-96510000D02*
X147540000Y-95020000D01*
X147540000Y-95020000D02*
X151210000Y-95020000D01*
X151210000Y-95020000D02*
X152110000Y-94120000D01*
X152110000Y-94120000D02*
X153530000Y-94120000D01*
X153530000Y-94120000D02*
X154940000Y-92710000D01*
X144780000Y-85090000D02*
X145000000Y-85090000D01*
X145000000Y-85090000D02*
X148590000Y-81500000D01*
X148590000Y-81500000D02*
X148590000Y-81280000D01*
X147320000Y-85090000D02*
X151130000Y-81280000D01*
X154270000Y-94370000D02*
X154270000Y-94450000D01*
X153420000Y-95300000D02*
X152350000Y-95300000D01*
X154270000Y-94450000D02*
X153420000Y-95300000D01*
X170180000Y-92710000D02*
X170070000Y-92710000D01*
X170070000Y-92710000D02*
X167650000Y-95130000D01*
X167650000Y-95130000D02*
X167650000Y-97080000D01*
X167650000Y-97080000D02*
X166970002Y-97759998D01*
X166970002Y-97759998D02*
X160439998Y-97759998D01*
X160439998Y-97759998D02*
X159990000Y-97310000D01*
X159990000Y-97310000D02*
X159990000Y-95840000D01*
X159990000Y-95840000D02*
X158520000Y-94370000D01*
X158520000Y-94370000D02*
X154270000Y-94370000D01*
X152350000Y-95300000D02*
X151130000Y-96520000D01*
X149860000Y-85090000D02*
X153670000Y-81280000D01*
X172720000Y-92710000D02*
X172720000Y-93280000D01*
X172720000Y-93280000D02*
X172200000Y-93800000D01*
X172200000Y-95600000D02*
X169490000Y-98310000D01*
X172200000Y-93800000D02*
X172200000Y-95600000D01*
X153670000Y-96520000D02*
X153670000Y-96130000D01*
X153670000Y-96130000D02*
X154760000Y-95040000D01*
X154760000Y-95040000D02*
X157010000Y-95040000D01*
X157010000Y-95040000D02*
X157460000Y-95490000D01*
X157460000Y-95490000D02*
X157460000Y-97130000D01*
X157460000Y-97130000D02*
X158400000Y-98310000D01*
X158400000Y-98310000D02*
X169490000Y-98310000D01*
X152400000Y-85090000D02*
X156210000Y-81280000D01*
X169600000Y-98880000D02*
X170020000Y-98880000D01*
X172800000Y-94900000D02*
X174990000Y-92710000D01*
X172800000Y-96100000D02*
X172800000Y-94900000D01*
X170020000Y-98880000D02*
X172800000Y-96100000D01*
X174990000Y-92710000D02*
X175260000Y-92710000D01*
X156210000Y-96520000D02*
X156210000Y-96850000D01*
X156210000Y-96850000D02*
X158070000Y-98880000D01*
D22*
X158070000Y-98880000D02*
X169600000Y-98880000D01*
D21*
X154940000Y-85090000D02*
X158750000Y-81280000D01*
X157480000Y-85090000D02*
X161290000Y-81280000D01*
X171560000Y-88850000D02*
X173300000Y-88850000D01*
X176980000Y-83540000D02*
X177800000Y-84360000D01*
X174310000Y-83540000D02*
X176980000Y-83540000D01*
X173980000Y-83870000D02*
X174310000Y-83540000D01*
X173980000Y-88170000D02*
X173980000Y-83870000D01*
X173300000Y-88850000D02*
X173980000Y-88170000D01*
X177800000Y-84360000D02*
X177800000Y-85090000D01*
X177800000Y-84390000D02*
X177800000Y-85090000D01*
X161290000Y-96520000D02*
X161290000Y-91900000D01*
X164700000Y-88850000D02*
X171560000Y-88850000D01*
X171560000Y-88850000D02*
X171880000Y-88850000D01*
X161290000Y-91900000D02*
X164700000Y-88850000D01*
X171870000Y-89420000D02*
X174640000Y-89420000D01*
X175260000Y-88800000D02*
X175260000Y-85090000D01*
X174640000Y-89420000D02*
X175260000Y-88800000D01*
X163830000Y-96520000D02*
X163830000Y-95500000D01*
X165870000Y-89420000D02*
X171870000Y-89420000D01*
X171870000Y-89420000D02*
X171970000Y-89420000D01*
X163800000Y-91160000D02*
X165870000Y-89420000D01*
X163800000Y-95470000D02*
X163800000Y-91160000D01*
X163830000Y-95500000D02*
X163800000Y-95470000D01*
X169050000Y-88160000D02*
X172550000Y-88160000D01*
X173350000Y-85720000D02*
X172720000Y-85090000D01*
X173350000Y-87220000D02*
X173350000Y-85720000D01*
X172550000Y-88160000D02*
X173350000Y-87220000D01*
X127000000Y-88900000D02*
X126430000Y-88900000D01*
X126430000Y-88900000D02*
X125680000Y-88150000D01*
X171460000Y-78780000D02*
X171860000Y-78760000D01*
X164900000Y-78780000D02*
X171460000Y-78780000D01*
X164600000Y-78480000D02*
X164900000Y-78780000D01*
X130040000Y-78480000D02*
X164600000Y-78480000D01*
X125680000Y-82840000D02*
X130040000Y-78480000D01*
X125680000Y-88150000D02*
X125680000Y-82840000D01*
X166370000Y-96520000D02*
X166370000Y-91620000D01*
X169050000Y-88160000D02*
X169060000Y-88150000D01*
X166370000Y-91620000D02*
X166680000Y-91310000D01*
X123690000Y-88900000D02*
X124460000Y-88900000D01*
X122830000Y-88040000D02*
X123690000Y-88900000D01*
X122830000Y-82920000D02*
X122830000Y-88040000D01*
X127720000Y-77352000D02*
X122830000Y-82920000D01*
X168010000Y-77352000D02*
X127720000Y-77352000D01*
X168040000Y-77382000D02*
X168010000Y-77352000D01*
X168910000Y-81280000D02*
X168910000Y-82250000D01*
X167640000Y-83520000D02*
X167640000Y-85090000D01*
X168910000Y-82250000D02*
X167640000Y-83520000D01*
X167160002Y-77902002D02*
X167182002Y-77902002D01*
X169030000Y-78060000D02*
X169800000Y-78050000D01*
X167340000Y-78060000D02*
X169030000Y-78060000D01*
X167182002Y-77902002D02*
X167340000Y-78060000D01*
X124460000Y-86360000D02*
X124460000Y-82030000D01*
X128079998Y-77902002D02*
X167160002Y-77902002D01*
X124460000Y-82030000D02*
X128079998Y-77902002D01*
X168910000Y-96520000D02*
X169800000Y-96520000D01*
X170180000Y-85900000D02*
X170180000Y-85090000D01*
X171390000Y-87440000D02*
X170180000Y-85900000D01*
X171510000Y-94810000D02*
X171510000Y-91360000D01*
X169800000Y-96520000D02*
X171510000Y-94810000D01*
X160020000Y-92710000D02*
X160020000Y-91850000D01*
X156170000Y-88000000D02*
X144410000Y-88000000D01*
X160020000Y-91850000D02*
X156170000Y-88000000D01*
X137910000Y-83540000D02*
X137910000Y-86000000D01*
X137910000Y-86000000D02*
X141180000Y-89270000D01*
X137910000Y-83540000D02*
X137910000Y-85800000D01*
X137910000Y-85800000D02*
X133360000Y-90350000D01*
X133360000Y-90350000D02*
X132960000Y-90350000D01*
X132960000Y-90350000D02*
X128970000Y-86360000D01*
X128970000Y-86360000D02*
X127000000Y-86360000D01*
X133360000Y-90350000D02*
X133360000Y-92450000D01*
X132100000Y-93710000D02*
X131060000Y-94220000D01*
X133360000Y-92450000D02*
X132100000Y-93710000D01*
X133760000Y-89950000D02*
X133360000Y-90350000D01*
X160020000Y-92710000D02*
X160020000Y-91840000D01*
X164690000Y-87170000D02*
X164690000Y-85500000D01*
X160020000Y-91840000D02*
X164690000Y-87170000D01*
X164690000Y-85500000D02*
X165100000Y-85090000D01*
X174010000Y-81580000D02*
X170875000Y-81575000D01*
X166435000Y-86425000D02*
X165100000Y-85090000D01*
X168400000Y-86425000D02*
X166435000Y-86425000D01*
X168925000Y-85900000D02*
X168400000Y-86425000D01*
X168925000Y-83525000D02*
X168925000Y-85900000D01*
X170875000Y-81575000D02*
X168925000Y-83525000D01*
X176900000Y-96200000D02*
X176900000Y-97510000D01*
X186160000Y-88900000D02*
X190500000Y-88900000D01*
X184540000Y-90520000D02*
X186160000Y-88900000D01*
X184540000Y-92390000D02*
X184540000Y-90520000D01*
X182740000Y-94190000D02*
X184540000Y-92390000D01*
X182410000Y-94190000D02*
X182740000Y-94190000D01*
X181420000Y-95180000D02*
X182410000Y-94190000D01*
X181420000Y-97310000D02*
X181420000Y-95180000D01*
X180870000Y-97860000D02*
X181420000Y-97310000D01*
X177250000Y-97860000D02*
X180870000Y-97860000D01*
X176900000Y-97510000D02*
X177250000Y-97860000D01*
X181230000Y-81670000D02*
X181230000Y-85330000D01*
X181230000Y-85330000D02*
X182460000Y-86560000D01*
X165100000Y-92710000D02*
X165100000Y-91360000D01*
X178950000Y-90030000D02*
X182460000Y-86560000D01*
X166390000Y-90030000D02*
X178950000Y-90030000D01*
X165100000Y-91360000D02*
X166390000Y-90030000D01*
X182460000Y-91440000D02*
X182460000Y-92380000D01*
X180170000Y-94670000D02*
X180170000Y-96180000D01*
X182460000Y-92380000D02*
X180170000Y-94670000D01*
X167640000Y-92710000D02*
X167640000Y-92400000D01*
X167640000Y-92400000D02*
X169400000Y-90640000D01*
X169400000Y-90640000D02*
X181660000Y-90640000D01*
X181660000Y-90640000D02*
X182460000Y-91440000D01*
X162560000Y-85090000D02*
X162560000Y-84230000D01*
X163830000Y-82960000D02*
X163830000Y-81280000D01*
X162560000Y-84230000D02*
X163830000Y-82960000D01*
D23*
G36*
X123035926Y-89554074D02*
X123116523Y-89607927D01*
X123177441Y-89755360D01*
X123591708Y-90170351D01*
X123178936Y-90582402D01*
X122948263Y-91137925D01*
X122947738Y-91739436D01*
X123177441Y-92295360D01*
X123535000Y-92653544D01*
X123535000Y-92920000D01*
X123605411Y-93273983D01*
X123805926Y-93574074D01*
X128985926Y-98754074D01*
X129286017Y-98954589D01*
X129640000Y-99025000D01*
X156016852Y-99025000D01*
X156750852Y-99759000D01*
X122745000Y-99759000D01*
X122745000Y-89263148D01*
X123035926Y-89554074D01*
X123035926Y-89554074D01*
G37*
X123035926Y-89554074D02*
X123116523Y-89607927D01*
X123177441Y-89755360D01*
X123591708Y-90170351D01*
X123178936Y-90582402D01*
X122948263Y-91137925D01*
X122947738Y-91739436D01*
X123177441Y-92295360D01*
X123535000Y-92653544D01*
X123535000Y-92920000D01*
X123605411Y-93273983D01*
X123805926Y-93574074D01*
X128985926Y-98754074D01*
X129286017Y-98954589D01*
X129640000Y-99025000D01*
X156016852Y-99025000D01*
X156750852Y-99759000D01*
X122745000Y-99759000D01*
X122745000Y-89263148D01*
X123035926Y-89554074D01*
G36*
X189642402Y-90181064D02*
X190197925Y-90411737D01*
X190720140Y-90412193D01*
X190612759Y-90433552D01*
X190496655Y-90689548D01*
X191220000Y-91412893D01*
X191573554Y-91059340D01*
X192215000Y-91700786D01*
X192215000Y-91832107D01*
X191927107Y-92120000D01*
X192215000Y-92407893D01*
X192215000Y-92539214D01*
X191573554Y-93180661D01*
X191220000Y-92827107D01*
X190496655Y-93550452D01*
X190612759Y-93806448D01*
X191231769Y-93899539D01*
X191600099Y-94267869D01*
X192215000Y-93652968D01*
X192215000Y-97087032D01*
X191600099Y-96472131D01*
X191228692Y-96843538D01*
X191135642Y-96829545D01*
X190612759Y-96933552D01*
X190496655Y-97189548D01*
X191220000Y-97912893D01*
X191573554Y-97559340D01*
X192215000Y-98200786D01*
X192215000Y-98332107D01*
X191927107Y-98620000D01*
X192215000Y-98907893D01*
X192215000Y-99039214D01*
X191573554Y-99680661D01*
X191220000Y-99327107D01*
X190866447Y-99680661D01*
X190159340Y-98973554D01*
X190512893Y-98620000D01*
X189789548Y-97896655D01*
X189533552Y-98012759D01*
X189440461Y-98631769D01*
X189072131Y-99000099D01*
X189831032Y-99759000D01*
X188056047Y-99759000D01*
X188202713Y-99612590D01*
X188469696Y-98969624D01*
X188470304Y-98273431D01*
X188204443Y-97629999D01*
X187712590Y-97137287D01*
X187645000Y-97109221D01*
X187645000Y-93631301D01*
X187710001Y-93604443D01*
X188202713Y-93112590D01*
X188469696Y-92469624D01*
X188469927Y-92204358D01*
X189429545Y-92204358D01*
X189533552Y-92727241D01*
X189789548Y-92843345D01*
X190512893Y-92120000D01*
X189789548Y-91396655D01*
X189533552Y-91512759D01*
X189429545Y-92204358D01*
X188469927Y-92204358D01*
X188470304Y-91773431D01*
X188204443Y-91129999D01*
X187712590Y-90637287D01*
X187069624Y-90370304D01*
X186373431Y-90369696D01*
X185734416Y-90633732D01*
X186543148Y-89825000D01*
X189286959Y-89825000D01*
X189642402Y-90181064D01*
X189642402Y-90181064D01*
G37*
X189642402Y-90181064D02*
X190197925Y-90411737D01*
X190720140Y-90412193D01*
X190612759Y-90433552D01*
X190496655Y-90689548D01*
X191220000Y-91412893D01*
X191573554Y-91059340D01*
X192215000Y-91700786D01*
X192215000Y-91832107D01*
X191927107Y-92120000D01*
X192215000Y-92407893D01*
X192215000Y-92539214D01*
X191573554Y-93180661D01*
X191220000Y-92827107D01*
X190496655Y-93550452D01*
X190612759Y-93806448D01*
X191231769Y-93899539D01*
X191600099Y-94267869D01*
X192215000Y-93652968D01*
X192215000Y-97087032D01*
X191600099Y-96472131D01*
X191228692Y-96843538D01*
X191135642Y-96829545D01*
X190612759Y-96933552D01*
X190496655Y-97189548D01*
X191220000Y-97912893D01*
X191573554Y-97559340D01*
X192215000Y-98200786D01*
X192215000Y-98332107D01*
X191927107Y-98620000D01*
X192215000Y-98907893D01*
X192215000Y-99039214D01*
X191573554Y-99680661D01*
X191220000Y-99327107D01*
X190866447Y-99680661D01*
X190159340Y-98973554D01*
X190512893Y-98620000D01*
X189789548Y-97896655D01*
X189533552Y-98012759D01*
X189440461Y-98631769D01*
X189072131Y-99000099D01*
X189831032Y-99759000D01*
X188056047Y-99759000D01*
X188202713Y-99612590D01*
X188469696Y-98969624D01*
X188470304Y-98273431D01*
X188204443Y-97629999D01*
X187712590Y-97137287D01*
X187645000Y-97109221D01*
X187645000Y-93631301D01*
X187710001Y-93604443D01*
X188202713Y-93112590D01*
X188469696Y-92469624D01*
X188469927Y-92204358D01*
X189429545Y-92204358D01*
X189533552Y-92727241D01*
X189789548Y-92843345D01*
X190512893Y-92120000D01*
X189789548Y-91396655D01*
X189533552Y-91512759D01*
X189429545Y-92204358D01*
X188469927Y-92204358D01*
X188470304Y-91773431D01*
X188204443Y-91129999D01*
X187712590Y-90637287D01*
X187069624Y-90370304D01*
X186373431Y-90369696D01*
X185734416Y-90633732D01*
X186543148Y-89825000D01*
X189286959Y-89825000D01*
X189642402Y-90181064D01*
G36*
X185235557Y-93110001D02*
X185727410Y-93602713D01*
X185795000Y-93630779D01*
X185795000Y-97108699D01*
X185729999Y-97135557D01*
X185237287Y-97627410D01*
X185234135Y-97635000D01*
X183258198Y-97635000D01*
X183335119Y-97410805D01*
X182670000Y-96745685D01*
X182387157Y-97028528D01*
X182345000Y-96986371D01*
X182345000Y-96180000D01*
X183235685Y-96180000D01*
X183900805Y-96845119D01*
X184148846Y-96760017D01*
X184258239Y-96149936D01*
X184148846Y-95599983D01*
X183900805Y-95514881D01*
X183235685Y-96180000D01*
X182345000Y-96180000D01*
X182345000Y-95563148D01*
X182481916Y-95426231D01*
X182670000Y-95614315D01*
X183335119Y-94949195D01*
X183316774Y-94895725D01*
X183394074Y-94844074D01*
X185194071Y-93044076D01*
X185194074Y-93044074D01*
X185202874Y-93030903D01*
X185235557Y-93110001D01*
X185235557Y-93110001D01*
G37*
X185235557Y-93110001D02*
X185727410Y-93602713D01*
X185795000Y-93630779D01*
X185795000Y-97108699D01*
X185729999Y-97135557D01*
X185237287Y-97627410D01*
X185234135Y-97635000D01*
X183258198Y-97635000D01*
X183335119Y-97410805D01*
X182670000Y-96745685D01*
X182387157Y-97028528D01*
X182345000Y-96986371D01*
X182345000Y-96180000D01*
X183235685Y-96180000D01*
X183900805Y-96845119D01*
X184148846Y-96760017D01*
X184258239Y-96149936D01*
X184148846Y-95599983D01*
X183900805Y-95514881D01*
X183235685Y-96180000D01*
X182345000Y-96180000D01*
X182345000Y-95563148D01*
X182481916Y-95426231D01*
X182670000Y-95614315D01*
X183335119Y-94949195D01*
X183316774Y-94895725D01*
X183394074Y-94844074D01*
X185194071Y-93044076D01*
X185194074Y-93044074D01*
X185202874Y-93030903D01*
X185235557Y-93110001D01*
G36*
X141180000Y-93704315D02*
X141249315Y-93635000D01*
X141676371Y-93635000D01*
X142028528Y-93987157D01*
X141745685Y-94270000D01*
X142410805Y-94935119D01*
X142658846Y-94850017D01*
X142722446Y-94495323D01*
X143183677Y-94034093D01*
X142784584Y-93635000D01*
X143238828Y-93635000D01*
X143267604Y-93787933D01*
X143431862Y-94043198D01*
X143682492Y-94214446D01*
X143980000Y-94274693D01*
X144257160Y-94274693D01*
X143549218Y-94982634D01*
X143205534Y-94982334D01*
X142640271Y-95215896D01*
X142207416Y-95647996D01*
X142071530Y-95975246D01*
X141526776Y-96520000D01*
X141805164Y-96798388D01*
X141428552Y-97175000D01*
X141068224Y-97175000D01*
X140970000Y-97076776D01*
X140871776Y-97175000D01*
X140511448Y-97175000D01*
X140134836Y-96798388D01*
X140413224Y-96520000D01*
X139868318Y-95975094D01*
X139734104Y-95650271D01*
X139562862Y-95478730D01*
X139806382Y-95316016D01*
X139815878Y-95301803D01*
X140308579Y-95301803D01*
X140518694Y-95511918D01*
X140599983Y-95748846D01*
X140789627Y-95782851D01*
X140970000Y-95963224D01*
X141095523Y-95837701D01*
X141210064Y-95858239D01*
X141760017Y-95748846D01*
X141845119Y-95500805D01*
X141623987Y-95279673D01*
X141548273Y-95054273D01*
X141365421Y-95021107D01*
X141180000Y-94835685D01*
X141051516Y-94964169D01*
X140943345Y-94944549D01*
X140391727Y-95054273D01*
X140308579Y-95301803D01*
X139815878Y-95301803D01*
X140142379Y-94813159D01*
X140160064Y-94724250D01*
X140614315Y-94270000D01*
X140331472Y-93987157D01*
X140683629Y-93635000D01*
X141110685Y-93635000D01*
X141180000Y-93704315D01*
X141180000Y-93704315D01*
G37*
X141180000Y-93704315D02*
X141249315Y-93635000D01*
X141676371Y-93635000D01*
X142028528Y-93987157D01*
X141745685Y-94270000D01*
X142410805Y-94935119D01*
X142658846Y-94850017D01*
X142722446Y-94495323D01*
X143183677Y-94034093D01*
X142784584Y-93635000D01*
X143238828Y-93635000D01*
X143267604Y-93787933D01*
X143431862Y-94043198D01*
X143682492Y-94214446D01*
X143980000Y-94274693D01*
X144257160Y-94274693D01*
X143549218Y-94982634D01*
X143205534Y-94982334D01*
X142640271Y-95215896D01*
X142207416Y-95647996D01*
X142071530Y-95975246D01*
X141526776Y-96520000D01*
X141805164Y-96798388D01*
X141428552Y-97175000D01*
X141068224Y-97175000D01*
X140970000Y-97076776D01*
X140871776Y-97175000D01*
X140511448Y-97175000D01*
X140134836Y-96798388D01*
X140413224Y-96520000D01*
X139868318Y-95975094D01*
X139734104Y-95650271D01*
X139562862Y-95478730D01*
X139806382Y-95316016D01*
X139815878Y-95301803D01*
X140308579Y-95301803D01*
X140518694Y-95511918D01*
X140599983Y-95748846D01*
X140789627Y-95782851D01*
X140970000Y-95963224D01*
X141095523Y-95837701D01*
X141210064Y-95858239D01*
X141760017Y-95748846D01*
X141845119Y-95500805D01*
X141623987Y-95279673D01*
X141548273Y-95054273D01*
X141365421Y-95021107D01*
X141180000Y-94835685D01*
X141051516Y-94964169D01*
X140943345Y-94944549D01*
X140391727Y-95054273D01*
X140308579Y-95301803D01*
X139815878Y-95301803D01*
X140142379Y-94813159D01*
X140160064Y-94724250D01*
X140614315Y-94270000D01*
X140331472Y-93987157D01*
X140683629Y-93635000D01*
X141110685Y-93635000D01*
X141180000Y-93704315D01*
G36*
X131716412Y-90414560D02*
X131835599Y-91013753D01*
X132193274Y-91549051D01*
X132435000Y-91710567D01*
X132435000Y-92066852D01*
X131846545Y-92655307D01*
X130260000Y-92655307D01*
X129982067Y-92707604D01*
X129726802Y-92871862D01*
X129555554Y-93122492D01*
X129495307Y-93420000D01*
X129495307Y-95020000D01*
X129547604Y-95297933D01*
X129711862Y-95553198D01*
X129962492Y-95724446D01*
X130260000Y-95784693D01*
X131860000Y-95784693D01*
X132001728Y-95758025D01*
X131812868Y-96212851D01*
X131812334Y-96824466D01*
X131957172Y-97175000D01*
X130023148Y-97175000D01*
X125480918Y-92632770D01*
X126346045Y-92632770D01*
X126425255Y-92879265D01*
X127019788Y-92989653D01*
X127574745Y-92879265D01*
X127653955Y-92632770D01*
X127000000Y-91978815D01*
X126346045Y-92632770D01*
X125480918Y-92632770D01*
X125443145Y-92594997D01*
X125741064Y-92297598D01*
X125838685Y-92062500D01*
X126461185Y-91440000D01*
X127538815Y-91440000D01*
X128192770Y-92093955D01*
X128439265Y-92014745D01*
X128549653Y-91420212D01*
X128439265Y-90865255D01*
X128192770Y-90786045D01*
X127538815Y-91440000D01*
X126461185Y-91440000D01*
X125838838Y-90817653D01*
X125742559Y-90584640D01*
X125328292Y-90169649D01*
X125730351Y-89768292D01*
X126142402Y-90181064D01*
X126377500Y-90278685D01*
X127000000Y-90901185D01*
X127622347Y-90278838D01*
X127855360Y-90182559D01*
X128281064Y-89757598D01*
X128511737Y-89202075D01*
X128512262Y-88600564D01*
X128282559Y-88044640D01*
X127868292Y-87629649D01*
X128213544Y-87285000D01*
X128586852Y-87285000D01*
X131716412Y-90414560D01*
X131716412Y-90414560D01*
G37*
X131716412Y-90414560D02*
X131835599Y-91013753D01*
X132193274Y-91549051D01*
X132435000Y-91710567D01*
X132435000Y-92066852D01*
X131846545Y-92655307D01*
X130260000Y-92655307D01*
X129982067Y-92707604D01*
X129726802Y-92871862D01*
X129555554Y-93122492D01*
X129495307Y-93420000D01*
X129495307Y-95020000D01*
X129547604Y-95297933D01*
X129711862Y-95553198D01*
X129962492Y-95724446D01*
X130260000Y-95784693D01*
X131860000Y-95784693D01*
X132001728Y-95758025D01*
X131812868Y-96212851D01*
X131812334Y-96824466D01*
X131957172Y-97175000D01*
X130023148Y-97175000D01*
X125480918Y-92632770D01*
X126346045Y-92632770D01*
X126425255Y-92879265D01*
X127019788Y-92989653D01*
X127574745Y-92879265D01*
X127653955Y-92632770D01*
X127000000Y-91978815D01*
X126346045Y-92632770D01*
X125480918Y-92632770D01*
X125443145Y-92594997D01*
X125741064Y-92297598D01*
X125838685Y-92062500D01*
X126461185Y-91440000D01*
X127538815Y-91440000D01*
X128192770Y-92093955D01*
X128439265Y-92014745D01*
X128549653Y-91420212D01*
X128439265Y-90865255D01*
X128192770Y-90786045D01*
X127538815Y-91440000D01*
X126461185Y-91440000D01*
X125838838Y-90817653D01*
X125742559Y-90584640D01*
X125328292Y-90169649D01*
X125730351Y-89768292D01*
X126142402Y-90181064D01*
X126377500Y-90278685D01*
X127000000Y-90901185D01*
X127622347Y-90278838D01*
X127855360Y-90182559D01*
X128281064Y-89757598D01*
X128511737Y-89202075D01*
X128512262Y-88600564D01*
X128282559Y-88044640D01*
X127868292Y-87629649D01*
X128213544Y-87285000D01*
X128586852Y-87285000D01*
X131716412Y-90414560D01*
G36*
X162875000Y-95301018D02*
X162559681Y-95615788D01*
X162215000Y-95270505D01*
X162215000Y-92313672D01*
X162666319Y-91910000D01*
X162875000Y-91910000D01*
X162875000Y-95301018D01*
X162875000Y-95301018D01*
G37*
X162875000Y-95301018D02*
X162559681Y-95615788D01*
X162215000Y-95270505D01*
X162215000Y-92313672D01*
X162666319Y-91910000D01*
X162875000Y-91910000D01*
X162875000Y-95301018D01*
G36*
X192215000Y-90587032D02*
X191600099Y-89972131D01*
X191228692Y-90343538D01*
X191135642Y-90329545D01*
X190873367Y-90381714D01*
X191355360Y-90182559D01*
X191781064Y-89757598D01*
X192011737Y-89202075D01*
X192012262Y-88600564D01*
X191782559Y-88044640D01*
X191368292Y-87629649D01*
X191781064Y-87217598D01*
X192011737Y-86662075D01*
X192012262Y-86060564D01*
X191782559Y-85504640D01*
X191368292Y-85089649D01*
X191781064Y-84677598D01*
X192011737Y-84122075D01*
X192012262Y-83520564D01*
X191782559Y-82964640D01*
X191357598Y-82538936D01*
X191122500Y-82441315D01*
X190500000Y-81818815D01*
X190230593Y-82088223D01*
X189691778Y-81549408D01*
X189961185Y-81280000D01*
X191038815Y-81280000D01*
X191692770Y-81933955D01*
X191939265Y-81854745D01*
X192049653Y-81260212D01*
X191939265Y-80705255D01*
X191692770Y-80626045D01*
X191038815Y-81280000D01*
X189961185Y-81280000D01*
X189307230Y-80626045D01*
X189060735Y-80705255D01*
X189004591Y-81007639D01*
X188724615Y-81287615D01*
X187426977Y-80087230D01*
X189846045Y-80087230D01*
X190500000Y-80741185D01*
X191153955Y-80087230D01*
X191074745Y-79840735D01*
X190480212Y-79730347D01*
X189925255Y-79840735D01*
X189846045Y-80087230D01*
X187426977Y-80087230D01*
X186058133Y-78820976D01*
X185919344Y-78735857D01*
X185783983Y-78645412D01*
X185766055Y-78641846D01*
X185750469Y-78632287D01*
X185589665Y-78606759D01*
X185430001Y-78575000D01*
X184129999Y-78574998D01*
X172910162Y-78574998D01*
X172910182Y-78552058D01*
X172750666Y-78166000D01*
X172455554Y-77870372D01*
X172069774Y-77710182D01*
X171652058Y-77709818D01*
X171300691Y-77855000D01*
X170850171Y-77855000D01*
X170850182Y-77842058D01*
X170722482Y-77533000D01*
X192215000Y-77533000D01*
X192215000Y-90587032D01*
X192215000Y-90587032D01*
G37*
X192215000Y-90587032D02*
X191600099Y-89972131D01*
X191228692Y-90343538D01*
X191135642Y-90329545D01*
X190873367Y-90381714D01*
X191355360Y-90182559D01*
X191781064Y-89757598D01*
X192011737Y-89202075D01*
X192012262Y-88600564D01*
X191782559Y-88044640D01*
X191368292Y-87629649D01*
X191781064Y-87217598D01*
X192011737Y-86662075D01*
X192012262Y-86060564D01*
X191782559Y-85504640D01*
X191368292Y-85089649D01*
X191781064Y-84677598D01*
X192011737Y-84122075D01*
X192012262Y-83520564D01*
X191782559Y-82964640D01*
X191357598Y-82538936D01*
X191122500Y-82441315D01*
X190500000Y-81818815D01*
X190230593Y-82088223D01*
X189691778Y-81549408D01*
X189961185Y-81280000D01*
X191038815Y-81280000D01*
X191692770Y-81933955D01*
X191939265Y-81854745D01*
X192049653Y-81260212D01*
X191939265Y-80705255D01*
X191692770Y-80626045D01*
X191038815Y-81280000D01*
X189961185Y-81280000D01*
X189307230Y-80626045D01*
X189060735Y-80705255D01*
X189004591Y-81007639D01*
X188724615Y-81287615D01*
X187426977Y-80087230D01*
X189846045Y-80087230D01*
X190500000Y-80741185D01*
X191153955Y-80087230D01*
X191074745Y-79840735D01*
X190480212Y-79730347D01*
X189925255Y-79840735D01*
X189846045Y-80087230D01*
X187426977Y-80087230D01*
X186058133Y-78820976D01*
X185919344Y-78735857D01*
X185783983Y-78645412D01*
X185766055Y-78641846D01*
X185750469Y-78632287D01*
X185589665Y-78606759D01*
X185430001Y-78575000D01*
X184129999Y-78574998D01*
X172910162Y-78574998D01*
X172910182Y-78552058D01*
X172750666Y-78166000D01*
X172455554Y-77870372D01*
X172069774Y-77710182D01*
X171652058Y-77709818D01*
X171300691Y-77855000D01*
X170850171Y-77855000D01*
X170850182Y-77842058D01*
X170722482Y-77533000D01*
X192215000Y-77533000D01*
X192215000Y-90587032D01*
G36*
X160420000Y-84690000D02*
X160820000Y-84690000D01*
X160820000Y-85490000D01*
X160420000Y-85490000D01*
X160420000Y-86398737D01*
X160650631Y-86514665D01*
X160912061Y-86340002D01*
X161578000Y-86340002D01*
X161578000Y-86292565D01*
X161966841Y-86552379D01*
X162560000Y-86670366D01*
X163153159Y-86552379D01*
X163656016Y-86216382D01*
X163765000Y-86053275D01*
X163765000Y-86786852D01*
X160015000Y-90536852D01*
X156824074Y-87345926D01*
X156523983Y-87145411D01*
X156170000Y-87075000D01*
X144920369Y-87075000D01*
X144619774Y-86950182D01*
X144225000Y-86949838D01*
X144225000Y-86559969D01*
X144780000Y-86670366D01*
X145373159Y-86552379D01*
X145876016Y-86216382D01*
X146050000Y-85955996D01*
X146223984Y-86216382D01*
X146726841Y-86552379D01*
X147320000Y-86670366D01*
X147913159Y-86552379D01*
X148416016Y-86216382D01*
X148590000Y-85955996D01*
X148763984Y-86216382D01*
X149266841Y-86552379D01*
X149860000Y-86670366D01*
X150453159Y-86552379D01*
X150956016Y-86216382D01*
X151130000Y-85955996D01*
X151303984Y-86216382D01*
X151806841Y-86552379D01*
X152400000Y-86670366D01*
X152993159Y-86552379D01*
X153496016Y-86216382D01*
X153670000Y-85955996D01*
X153843984Y-86216382D01*
X154346841Y-86552379D01*
X154940000Y-86670366D01*
X155533159Y-86552379D01*
X156036016Y-86216382D01*
X156210000Y-85955996D01*
X156383984Y-86216382D01*
X156886841Y-86552379D01*
X157480000Y-86670366D01*
X158073159Y-86552379D01*
X158462000Y-86292565D01*
X158462000Y-86340002D01*
X159127939Y-86340002D01*
X159389369Y-86514665D01*
X159620000Y-86398737D01*
X159620000Y-85490000D01*
X159220000Y-85490000D01*
X159220000Y-84690000D01*
X159620000Y-84690000D01*
X159620000Y-84290000D01*
X160420000Y-84290000D01*
X160420000Y-84690000D01*
X160420000Y-84690000D01*
G37*
X160420000Y-84690000D02*
X160820000Y-84690000D01*
X160820000Y-85490000D01*
X160420000Y-85490000D01*
X160420000Y-86398737D01*
X160650631Y-86514665D01*
X160912061Y-86340002D01*
X161578000Y-86340002D01*
X161578000Y-86292565D01*
X161966841Y-86552379D01*
X162560000Y-86670366D01*
X163153159Y-86552379D01*
X163656016Y-86216382D01*
X163765000Y-86053275D01*
X163765000Y-86786852D01*
X160015000Y-90536852D01*
X156824074Y-87345926D01*
X156523983Y-87145411D01*
X156170000Y-87075000D01*
X144920369Y-87075000D01*
X144619774Y-86950182D01*
X144225000Y-86949838D01*
X144225000Y-86559969D01*
X144780000Y-86670366D01*
X145373159Y-86552379D01*
X145876016Y-86216382D01*
X146050000Y-85955996D01*
X146223984Y-86216382D01*
X146726841Y-86552379D01*
X147320000Y-86670366D01*
X147913159Y-86552379D01*
X148416016Y-86216382D01*
X148590000Y-85955996D01*
X148763984Y-86216382D01*
X149266841Y-86552379D01*
X149860000Y-86670366D01*
X150453159Y-86552379D01*
X150956016Y-86216382D01*
X151130000Y-85955996D01*
X151303984Y-86216382D01*
X151806841Y-86552379D01*
X152400000Y-86670366D01*
X152993159Y-86552379D01*
X153496016Y-86216382D01*
X153670000Y-85955996D01*
X153843984Y-86216382D01*
X154346841Y-86552379D01*
X154940000Y-86670366D01*
X155533159Y-86552379D01*
X156036016Y-86216382D01*
X156210000Y-85955996D01*
X156383984Y-86216382D01*
X156886841Y-86552379D01*
X157480000Y-86670366D01*
X158073159Y-86552379D01*
X158462000Y-86292565D01*
X158462000Y-86340002D01*
X159127939Y-86340002D01*
X159389369Y-86514665D01*
X159620000Y-86398737D01*
X159620000Y-85490000D01*
X159220000Y-85490000D01*
X159220000Y-84690000D01*
X159620000Y-84690000D01*
X159620000Y-84290000D01*
X160420000Y-84290000D01*
X160420000Y-84690000D01*
G36*
X183730000Y-81104315D02*
X183839315Y-80995000D01*
X184186371Y-80995000D01*
X184578528Y-81387157D01*
X184295685Y-81670000D01*
X184960805Y-82335119D01*
X185208846Y-82250017D01*
X185272446Y-81895323D01*
X185431407Y-81736362D01*
X188035000Y-84117538D01*
X188035000Y-85270000D01*
X188105411Y-85623983D01*
X188305926Y-85924074D01*
X188987785Y-86605933D01*
X188987738Y-86659436D01*
X189217441Y-87215360D01*
X189631708Y-87630351D01*
X189286456Y-87975000D01*
X186160000Y-87975000D01*
X185806017Y-88045411D01*
X185505926Y-88245926D01*
X183885926Y-89865926D01*
X183685411Y-90166017D01*
X183636535Y-90411737D01*
X183622656Y-90481512D01*
X183310791Y-90169103D01*
X182759677Y-89940261D01*
X182245059Y-89939812D01*
X182013983Y-89785411D01*
X181660000Y-89715000D01*
X180584340Y-89715000D01*
X182258596Y-88059825D01*
X182757059Y-88060260D01*
X183308572Y-87832380D01*
X183730897Y-87410791D01*
X183959739Y-86859677D01*
X183960260Y-86262941D01*
X183732380Y-85711428D01*
X183310791Y-85289103D01*
X182759677Y-85060261D01*
X182267980Y-85059832D01*
X182155000Y-84946852D01*
X182155000Y-82936733D01*
X182190990Y-82900805D01*
X183064881Y-82900805D01*
X183149983Y-83148846D01*
X183760064Y-83258239D01*
X184310017Y-83148846D01*
X184395119Y-82900805D01*
X183730000Y-82235685D01*
X183064881Y-82900805D01*
X182190990Y-82900805D01*
X182543260Y-82549151D01*
X182726532Y-82107782D01*
X183164315Y-81670000D01*
X182881472Y-81387157D01*
X183273629Y-80995000D01*
X183620685Y-80995000D01*
X183730000Y-81104315D01*
X183730000Y-81104315D01*
G37*
X183730000Y-81104315D02*
X183839315Y-80995000D01*
X184186371Y-80995000D01*
X184578528Y-81387157D01*
X184295685Y-81670000D01*
X184960805Y-82335119D01*
X185208846Y-82250017D01*
X185272446Y-81895323D01*
X185431407Y-81736362D01*
X188035000Y-84117538D01*
X188035000Y-85270000D01*
X188105411Y-85623983D01*
X188305926Y-85924074D01*
X188987785Y-86605933D01*
X188987738Y-86659436D01*
X189217441Y-87215360D01*
X189631708Y-87630351D01*
X189286456Y-87975000D01*
X186160000Y-87975000D01*
X185806017Y-88045411D01*
X185505926Y-88245926D01*
X183885926Y-89865926D01*
X183685411Y-90166017D01*
X183636535Y-90411737D01*
X183622656Y-90481512D01*
X183310791Y-90169103D01*
X182759677Y-89940261D01*
X182245059Y-89939812D01*
X182013983Y-89785411D01*
X181660000Y-89715000D01*
X180584340Y-89715000D01*
X182258596Y-88059825D01*
X182757059Y-88060260D01*
X183308572Y-87832380D01*
X183730897Y-87410791D01*
X183959739Y-86859677D01*
X183960260Y-86262941D01*
X183732380Y-85711428D01*
X183310791Y-85289103D01*
X182759677Y-85060261D01*
X182267980Y-85059832D01*
X182155000Y-84946852D01*
X182155000Y-82936733D01*
X182190990Y-82900805D01*
X183064881Y-82900805D01*
X183149983Y-83148846D01*
X183760064Y-83258239D01*
X184310017Y-83148846D01*
X184395119Y-82900805D01*
X183730000Y-82235685D01*
X183064881Y-82900805D01*
X182190990Y-82900805D01*
X182543260Y-82549151D01*
X182726532Y-82107782D01*
X183164315Y-81670000D01*
X182881472Y-81387157D01*
X183273629Y-80995000D01*
X183620685Y-80995000D01*
X183730000Y-81104315D01*
G36*
X176510000Y-81014315D02*
X176529315Y-80995000D01*
X177056371Y-80995000D01*
X177358528Y-81297157D01*
X177075685Y-81580000D01*
X177740805Y-82245119D01*
X177988846Y-82160017D01*
X178052446Y-81805323D01*
X178513677Y-81344093D01*
X178164584Y-80995000D01*
X179831969Y-80995000D01*
X179680270Y-81360333D01*
X179679732Y-81976961D01*
X179915208Y-82546857D01*
X180305000Y-82937331D01*
X180305000Y-85330000D01*
X180375411Y-85683983D01*
X180575926Y-85984074D01*
X180960167Y-86368315D01*
X180959840Y-86742349D01*
X178569954Y-89105000D01*
X176124332Y-89105000D01*
X176185000Y-88800000D01*
X176185000Y-86330651D01*
X176356016Y-86216382D01*
X176530000Y-85955996D01*
X176703984Y-86216382D01*
X177206841Y-86552379D01*
X177800000Y-86670366D01*
X178393159Y-86552379D01*
X178896016Y-86216382D01*
X179232013Y-85713525D01*
X179350000Y-85120366D01*
X179350000Y-85059634D01*
X179232013Y-84466475D01*
X178896016Y-83963618D01*
X178393159Y-83627621D01*
X178371451Y-83623303D01*
X177634074Y-82885926D01*
X177333983Y-82685411D01*
X176980000Y-82615000D01*
X176979314Y-82615000D01*
X176510000Y-82145685D01*
X176227157Y-82428528D01*
X175661472Y-81862843D01*
X175944315Y-81580000D01*
X175661472Y-81297157D01*
X175963629Y-80995000D01*
X176490685Y-80995000D01*
X176510000Y-81014315D01*
X176510000Y-81014315D01*
G37*
X176510000Y-81014315D02*
X176529315Y-80995000D01*
X177056371Y-80995000D01*
X177358528Y-81297157D01*
X177075685Y-81580000D01*
X177740805Y-82245119D01*
X177988846Y-82160017D01*
X178052446Y-81805323D01*
X178513677Y-81344093D01*
X178164584Y-80995000D01*
X179831969Y-80995000D01*
X179680270Y-81360333D01*
X179679732Y-81976961D01*
X179915208Y-82546857D01*
X180305000Y-82937331D01*
X180305000Y-85330000D01*
X180375411Y-85683983D01*
X180575926Y-85984074D01*
X180960167Y-86368315D01*
X180959840Y-86742349D01*
X178569954Y-89105000D01*
X176124332Y-89105000D01*
X176185000Y-88800000D01*
X176185000Y-86330651D01*
X176356016Y-86216382D01*
X176530000Y-85955996D01*
X176703984Y-86216382D01*
X177206841Y-86552379D01*
X177800000Y-86670366D01*
X178393159Y-86552379D01*
X178896016Y-86216382D01*
X179232013Y-85713525D01*
X179350000Y-85120366D01*
X179350000Y-85059634D01*
X179232013Y-84466475D01*
X178896016Y-83963618D01*
X178393159Y-83627621D01*
X178371451Y-83623303D01*
X177634074Y-82885926D01*
X177333983Y-82685411D01*
X176980000Y-82615000D01*
X176979314Y-82615000D01*
X176510000Y-82145685D01*
X176227157Y-82428528D01*
X175661472Y-81862843D01*
X175944315Y-81580000D01*
X175661472Y-81297157D01*
X175963629Y-80995000D01*
X176490685Y-80995000D01*
X176510000Y-81014315D01*
G36*
X133810000Y-87360000D02*
X134260000Y-87360000D01*
X134260000Y-88141852D01*
X134141852Y-88260000D01*
X133810000Y-88260000D01*
X133810000Y-88591852D01*
X133691852Y-88710000D01*
X133572782Y-88710000D01*
X133360000Y-88667675D01*
X133147219Y-88710000D01*
X132910000Y-88710000D01*
X132910000Y-88260000D01*
X132460000Y-88260000D01*
X132460000Y-87360000D01*
X132910000Y-87360000D01*
X132910000Y-86934693D01*
X133810000Y-86934693D01*
X133810000Y-87360000D01*
X133810000Y-87360000D01*
G37*
X133810000Y-87360000D02*
X134260000Y-87360000D01*
X134260000Y-88141852D01*
X134141852Y-88260000D01*
X133810000Y-88260000D01*
X133810000Y-88591852D01*
X133691852Y-88710000D01*
X133572782Y-88710000D01*
X133360000Y-88667675D01*
X133147219Y-88710000D01*
X132910000Y-88710000D01*
X132910000Y-88260000D01*
X132460000Y-88260000D01*
X132460000Y-87360000D01*
X132910000Y-87360000D01*
X132910000Y-86934693D01*
X133810000Y-86934693D01*
X133810000Y-87360000D01*
G36*
X133579052Y-79742800D02*
X133489366Y-79742722D01*
X133350000Y-79715000D01*
X133211852Y-79742479D01*
X133045534Y-79742334D01*
X132480271Y-79975896D01*
X132047416Y-80407996D01*
X131812868Y-80972851D01*
X131812334Y-81584466D01*
X132045896Y-82149729D01*
X132435000Y-82539513D01*
X132435000Y-83610011D01*
X132182067Y-83657604D01*
X131926802Y-83821862D01*
X131755554Y-84072492D01*
X131695307Y-84370000D01*
X131695307Y-86170000D01*
X131747604Y-86447933D01*
X131819716Y-86559998D01*
X131702000Y-86559998D01*
X131702000Y-87783852D01*
X129624074Y-85705926D01*
X129323983Y-85505411D01*
X128970000Y-85435000D01*
X128213041Y-85435000D01*
X127857598Y-85078936D01*
X127302075Y-84848263D01*
X126700564Y-84847738D01*
X126605000Y-84887224D01*
X126605000Y-83223148D01*
X130423148Y-79405000D01*
X133916852Y-79405000D01*
X133579052Y-79742800D01*
X133579052Y-79742800D01*
G37*
X133579052Y-79742800D02*
X133489366Y-79742722D01*
X133350000Y-79715000D01*
X133211852Y-79742479D01*
X133045534Y-79742334D01*
X132480271Y-79975896D01*
X132047416Y-80407996D01*
X131812868Y-80972851D01*
X131812334Y-81584466D01*
X132045896Y-82149729D01*
X132435000Y-82539513D01*
X132435000Y-83610011D01*
X132182067Y-83657604D01*
X131926802Y-83821862D01*
X131755554Y-84072492D01*
X131695307Y-84370000D01*
X131695307Y-86170000D01*
X131747604Y-86447933D01*
X131819716Y-86559998D01*
X131702000Y-86559998D01*
X131702000Y-87783852D01*
X129624074Y-85705926D01*
X129323983Y-85505411D01*
X128970000Y-85435000D01*
X128213041Y-85435000D01*
X127857598Y-85078936D01*
X127302075Y-84848263D01*
X126700564Y-84847738D01*
X126605000Y-84887224D01*
X126605000Y-83223148D01*
X130423148Y-79405000D01*
X133916852Y-79405000D01*
X133579052Y-79742800D01*
G36*
X139624400Y-83992548D02*
X139615109Y-84035771D01*
X139639903Y-84171279D01*
X139639732Y-84366961D01*
X139875208Y-84936857D01*
X140310849Y-85373260D01*
X140752218Y-85556532D01*
X141190000Y-85994315D01*
X141472843Y-85711472D01*
X141795000Y-86033629D01*
X141795000Y-86520685D01*
X141755685Y-86560000D01*
X141795000Y-86599315D01*
X141795000Y-87086371D01*
X141472843Y-87408528D01*
X141190000Y-87125685D01*
X140907157Y-87408528D01*
X140341472Y-86842843D01*
X140624315Y-86560000D01*
X139959195Y-85894881D01*
X139711154Y-85979983D01*
X139647554Y-86334677D01*
X139600189Y-86382041D01*
X138835000Y-85616852D01*
X138835000Y-84806733D01*
X139223260Y-84419151D01*
X139459730Y-83849667D01*
X139459749Y-83827897D01*
X139624400Y-83992548D01*
X139624400Y-83992548D01*
G37*
X139624400Y-83992548D02*
X139615109Y-84035771D01*
X139639903Y-84171279D01*
X139639732Y-84366961D01*
X139875208Y-84936857D01*
X140310849Y-85373260D01*
X140752218Y-85556532D01*
X141190000Y-85994315D01*
X141472843Y-85711472D01*
X141795000Y-86033629D01*
X141795000Y-86520685D01*
X141755685Y-86560000D01*
X141795000Y-86599315D01*
X141795000Y-87086371D01*
X141472843Y-87408528D01*
X141190000Y-87125685D01*
X140907157Y-87408528D01*
X140341472Y-86842843D01*
X140624315Y-86560000D01*
X139959195Y-85894881D01*
X139711154Y-85979983D01*
X139647554Y-86334677D01*
X139600189Y-86382041D01*
X138835000Y-85616852D01*
X138835000Y-84806733D01*
X139223260Y-84419151D01*
X139459730Y-83849667D01*
X139459749Y-83827897D01*
X139624400Y-83992548D01*
G36*
X135890000Y-80723224D02*
X135908224Y-80705000D01*
X136428552Y-80705000D01*
X136725164Y-81001612D01*
X136446776Y-81280000D01*
X136524314Y-81357538D01*
X135967538Y-81914314D01*
X135890000Y-81836776D01*
X135228579Y-82498197D01*
X135311727Y-82745727D01*
X135330907Y-82749206D01*
X135299736Y-82905917D01*
X135285000Y-82980000D01*
X135285000Y-85560000D01*
X135355411Y-85913983D01*
X135554566Y-86212039D01*
X135679334Y-86514000D01*
X135783502Y-86618350D01*
X135018000Y-87383852D01*
X135018000Y-86559998D01*
X134901250Y-86559998D01*
X134964446Y-86467508D01*
X135024693Y-86170000D01*
X135024693Y-84370000D01*
X134972396Y-84092067D01*
X134808138Y-83836802D01*
X134557508Y-83665554D01*
X134285000Y-83610370D01*
X134285000Y-82518947D01*
X134652584Y-82152004D01*
X134788470Y-81824754D01*
X135333224Y-81280000D01*
X135054836Y-81001612D01*
X135351448Y-80705000D01*
X135871776Y-80705000D01*
X135890000Y-80723224D01*
X135890000Y-80723224D01*
G37*
X135890000Y-80723224D02*
X135908224Y-80705000D01*
X136428552Y-80705000D01*
X136725164Y-81001612D01*
X136446776Y-81280000D01*
X136524314Y-81357538D01*
X135967538Y-81914314D01*
X135890000Y-81836776D01*
X135228579Y-82498197D01*
X135311727Y-82745727D01*
X135330907Y-82749206D01*
X135299736Y-82905917D01*
X135285000Y-82980000D01*
X135285000Y-85560000D01*
X135355411Y-85913983D01*
X135554566Y-86212039D01*
X135679334Y-86514000D01*
X135783502Y-86618350D01*
X135018000Y-87383852D01*
X135018000Y-86559998D01*
X134901250Y-86559998D01*
X134964446Y-86467508D01*
X135024693Y-86170000D01*
X135024693Y-84370000D01*
X134972396Y-84092067D01*
X134808138Y-83836802D01*
X134557508Y-83665554D01*
X134285000Y-83610370D01*
X134285000Y-82518947D01*
X134652584Y-82152004D01*
X134788470Y-81824754D01*
X135333224Y-81280000D01*
X135054836Y-81001612D01*
X135351448Y-80705000D01*
X135871776Y-80705000D01*
X135890000Y-80723224D01*
M02*
