G04 #@! TF.FileFunction,Legend,Top*
%FSLAX46Y46*%
G04 Gerber Fmt 4.6, Leading zero omitted, Abs format (unit mm)*
G04 Created by KiCad (PCBNEW 4.0.7) date 10/17/21 23:49:16*
%MOMM*%
%LPD*%
G01*
G04 APERTURE LIST*
%ADD10C,0.100000*%
%ADD11C,0.150000*%
%ADD12C,0.120000*%
G04 APERTURE END LIST*
D10*
D11*
X131132381Y-89876666D02*
X131132381Y-90352857D01*
X130132381Y-90352857D01*
X131132381Y-89543333D02*
X130132381Y-89543333D01*
X130846667Y-89209999D01*
X130132381Y-88876666D01*
X131132381Y-88876666D01*
X130132381Y-88495714D02*
X130132381Y-87829047D01*
X131132381Y-88257619D01*
X130560952Y-87305238D02*
X130513333Y-87400476D01*
X130465714Y-87448095D01*
X130370476Y-87495714D01*
X130322857Y-87495714D01*
X130227619Y-87448095D01*
X130180000Y-87400476D01*
X130132381Y-87305238D01*
X130132381Y-87114761D01*
X130180000Y-87019523D01*
X130227619Y-86971904D01*
X130322857Y-86924285D01*
X130370476Y-86924285D01*
X130465714Y-86971904D01*
X130513333Y-87019523D01*
X130560952Y-87114761D01*
X130560952Y-87305238D01*
X130608571Y-87400476D01*
X130656190Y-87448095D01*
X130751429Y-87495714D01*
X130941905Y-87495714D01*
X131037143Y-87448095D01*
X131084762Y-87400476D01*
X131132381Y-87305238D01*
X131132381Y-87114761D01*
X131084762Y-87019523D01*
X131037143Y-86971904D01*
X130941905Y-86924285D01*
X130751429Y-86924285D01*
X130656190Y-86971904D01*
X130608571Y-87019523D01*
X130560952Y-87114761D01*
X130132381Y-86305238D02*
X130132381Y-86209999D01*
X130180000Y-86114761D01*
X130227619Y-86067142D01*
X130322857Y-86019523D01*
X130513333Y-85971904D01*
X130751429Y-85971904D01*
X130941905Y-86019523D01*
X131037143Y-86067142D01*
X131084762Y-86114761D01*
X131132381Y-86209999D01*
X131132381Y-86305238D01*
X131084762Y-86400476D01*
X131037143Y-86448095D01*
X130941905Y-86495714D01*
X130751429Y-86543333D01*
X130513333Y-86543333D01*
X130322857Y-86495714D01*
X130227619Y-86448095D01*
X130180000Y-86400476D01*
X130132381Y-86305238D01*
X130132381Y-85067142D02*
X130132381Y-85543333D01*
X130608571Y-85590952D01*
X130560952Y-85543333D01*
X130513333Y-85448095D01*
X130513333Y-85209999D01*
X130560952Y-85114761D01*
X130608571Y-85067142D01*
X130703810Y-85019523D01*
X130941905Y-85019523D01*
X131037143Y-85067142D01*
X131084762Y-85114761D01*
X131132381Y-85209999D01*
X131132381Y-85448095D01*
X131084762Y-85543333D01*
X131037143Y-85590952D01*
X124563810Y-94782381D02*
X124563810Y-93782381D01*
X125611429Y-94687143D02*
X125563810Y-94734762D01*
X125420953Y-94782381D01*
X125325715Y-94782381D01*
X125182857Y-94734762D01*
X125087619Y-94639524D01*
X125040000Y-94544286D01*
X124992381Y-94353810D01*
X124992381Y-94210952D01*
X125040000Y-94020476D01*
X125087619Y-93925238D01*
X125182857Y-93830000D01*
X125325715Y-93782381D01*
X125420953Y-93782381D01*
X125563810Y-93830000D01*
X125611429Y-93877619D01*
X125992381Y-94734762D02*
X126135238Y-94782381D01*
X126373334Y-94782381D01*
X126468572Y-94734762D01*
X126516191Y-94687143D01*
X126563810Y-94591905D01*
X126563810Y-94496667D01*
X126516191Y-94401429D01*
X126468572Y-94353810D01*
X126373334Y-94306190D01*
X126182857Y-94258571D01*
X126087619Y-94210952D01*
X126040000Y-94163333D01*
X125992381Y-94068095D01*
X125992381Y-93972857D01*
X126040000Y-93877619D01*
X126087619Y-93830000D01*
X126182857Y-93782381D01*
X126420953Y-93782381D01*
X126563810Y-93830000D01*
X126992381Y-94782381D02*
X126992381Y-93782381D01*
X127373334Y-93782381D01*
X127468572Y-93830000D01*
X127516191Y-93877619D01*
X127563810Y-93972857D01*
X127563810Y-94115714D01*
X127516191Y-94210952D01*
X127468572Y-94258571D01*
X127373334Y-94306190D01*
X126992381Y-94306190D01*
X145105715Y-95242381D02*
X144534286Y-95242381D01*
X144820000Y-95242381D02*
X144820000Y-94242381D01*
X144724762Y-94385238D01*
X144629524Y-94480476D01*
X144534286Y-94528095D01*
X135555715Y-85632381D02*
X134984286Y-85632381D01*
X135270000Y-85632381D02*
X135270000Y-84632381D01*
X135174762Y-84775238D01*
X135079524Y-84870476D01*
X134984286Y-84918095D01*
X155630000Y-89166667D02*
X156106191Y-89166667D01*
X155534762Y-89452381D02*
X155868095Y-88452381D01*
X156201429Y-89452381D01*
X156391905Y-88452381D02*
X156963334Y-88452381D01*
X156677619Y-89452381D02*
X156677619Y-88452381D01*
X157296667Y-89452381D02*
X157296667Y-88452381D01*
X157630001Y-89166667D01*
X157963334Y-88452381D01*
X157963334Y-89452381D01*
X158439524Y-88928571D02*
X158772858Y-88928571D01*
X158915715Y-89452381D02*
X158439524Y-89452381D01*
X158439524Y-88452381D01*
X158915715Y-88452381D01*
X159868096Y-88500000D02*
X159772858Y-88452381D01*
X159630001Y-88452381D01*
X159487143Y-88500000D01*
X159391905Y-88595238D01*
X159344286Y-88690476D01*
X159296667Y-88880952D01*
X159296667Y-89023810D01*
X159344286Y-89214286D01*
X159391905Y-89309524D01*
X159487143Y-89404762D01*
X159630001Y-89452381D01*
X159725239Y-89452381D01*
X159868096Y-89404762D01*
X159915715Y-89357143D01*
X159915715Y-89023810D01*
X159725239Y-89023810D01*
X160296667Y-89166667D02*
X160772858Y-89166667D01*
X160201429Y-89452381D02*
X160534762Y-88452381D01*
X160868096Y-89452381D01*
X161106191Y-88452381D02*
X161725239Y-88452381D01*
X161391905Y-88833333D01*
X161534763Y-88833333D01*
X161630001Y-88880952D01*
X161677620Y-88928571D01*
X161725239Y-89023810D01*
X161725239Y-89261905D01*
X161677620Y-89357143D01*
X161630001Y-89404762D01*
X161534763Y-89452381D01*
X161249048Y-89452381D01*
X161153810Y-89404762D01*
X161106191Y-89357143D01*
X162106191Y-88547619D02*
X162153810Y-88500000D01*
X162249048Y-88452381D01*
X162487144Y-88452381D01*
X162582382Y-88500000D01*
X162630001Y-88547619D01*
X162677620Y-88642857D01*
X162677620Y-88738095D01*
X162630001Y-88880952D01*
X162058572Y-89452381D01*
X162677620Y-89452381D01*
X163249048Y-88880952D02*
X163153810Y-88833333D01*
X163106191Y-88785714D01*
X163058572Y-88690476D01*
X163058572Y-88642857D01*
X163106191Y-88547619D01*
X163153810Y-88500000D01*
X163249048Y-88452381D01*
X163439525Y-88452381D01*
X163534763Y-88500000D01*
X163582382Y-88547619D01*
X163630001Y-88642857D01*
X163630001Y-88690476D01*
X163582382Y-88785714D01*
X163534763Y-88833333D01*
X163439525Y-88880952D01*
X163249048Y-88880952D01*
X163153810Y-88928571D01*
X163106191Y-88976190D01*
X163058572Y-89071429D01*
X163058572Y-89261905D01*
X163106191Y-89357143D01*
X163153810Y-89404762D01*
X163249048Y-89452381D01*
X163439525Y-89452381D01*
X163534763Y-89404762D01*
X163582382Y-89357143D01*
X163630001Y-89261905D01*
X163630001Y-89071429D01*
X163582382Y-88976190D01*
X163534763Y-88928571D01*
X163439525Y-88880952D01*
X164058572Y-89452381D02*
X164058572Y-88452381D01*
X164439525Y-88452381D01*
X164534763Y-88500000D01*
X164582382Y-88547619D01*
X164630001Y-88642857D01*
X164630001Y-88785714D01*
X164582382Y-88880952D01*
X164534763Y-88928571D01*
X164439525Y-88976190D01*
X164058572Y-88976190D01*
X186817143Y-89352381D02*
X186817143Y-88352381D01*
X187055238Y-88352381D01*
X187198096Y-88400000D01*
X187293334Y-88495238D01*
X187340953Y-88590476D01*
X187388572Y-88780952D01*
X187388572Y-88923810D01*
X187340953Y-89114286D01*
X187293334Y-89209524D01*
X187198096Y-89304762D01*
X187055238Y-89352381D01*
X186817143Y-89352381D01*
X187674286Y-88352381D02*
X188245715Y-88352381D01*
X187960000Y-89352381D02*
X187960000Y-88352381D01*
X189150477Y-89352381D02*
X188817143Y-88876190D01*
X188579048Y-89352381D02*
X188579048Y-88352381D01*
X188960001Y-88352381D01*
X189055239Y-88400000D01*
X189102858Y-88447619D01*
X189150477Y-88542857D01*
X189150477Y-88685714D01*
X189102858Y-88780952D01*
X189055239Y-88828571D01*
X188960001Y-88876190D01*
X188579048Y-88876190D01*
X187198096Y-80780000D02*
X187102858Y-80732381D01*
X186960001Y-80732381D01*
X186817143Y-80780000D01*
X186721905Y-80875238D01*
X186674286Y-80970476D01*
X186626667Y-81160952D01*
X186626667Y-81303810D01*
X186674286Y-81494286D01*
X186721905Y-81589524D01*
X186817143Y-81684762D01*
X186960001Y-81732381D01*
X187055239Y-81732381D01*
X187198096Y-81684762D01*
X187245715Y-81637143D01*
X187245715Y-81303810D01*
X187055239Y-81303810D01*
X187674286Y-81732381D02*
X187674286Y-80732381D01*
X188245715Y-81732381D01*
X188245715Y-80732381D01*
X188721905Y-81732381D02*
X188721905Y-80732381D01*
X188960000Y-80732381D01*
X189102858Y-80780000D01*
X189198096Y-80875238D01*
X189245715Y-80970476D01*
X189293334Y-81160952D01*
X189293334Y-81303810D01*
X189245715Y-81494286D01*
X189198096Y-81589524D01*
X189102858Y-81684762D01*
X188960000Y-81732381D01*
X188721905Y-81732381D01*
X187793334Y-86812381D02*
X187460000Y-86336190D01*
X187221905Y-86812381D02*
X187221905Y-85812381D01*
X187602858Y-85812381D01*
X187698096Y-85860000D01*
X187745715Y-85907619D01*
X187793334Y-86002857D01*
X187793334Y-86145714D01*
X187745715Y-86240952D01*
X187698096Y-86288571D01*
X187602858Y-86336190D01*
X187221905Y-86336190D01*
X188126667Y-85812381D02*
X188793334Y-86812381D01*
X188793334Y-85812381D02*
X188126667Y-86812381D01*
X187198095Y-83272381D02*
X187769524Y-83272381D01*
X187483809Y-84272381D02*
X187483809Y-83272381D01*
X188007619Y-83272381D02*
X188674286Y-84272381D01*
X188674286Y-83272381D02*
X188007619Y-84272381D01*
D12*
X143450000Y-87900000D02*
G75*
G02X143450000Y-89900000I0J-1000000D01*
G01*
X143450000Y-89900000D02*
X143450000Y-91550000D01*
X143450000Y-91550000D02*
X179130000Y-91550000D01*
X179130000Y-91550000D02*
X179130000Y-86250000D01*
X179130000Y-86250000D02*
X143450000Y-86250000D01*
X143450000Y-86250000D02*
X143450000Y-87900000D01*
X143390000Y-94040000D02*
X179190000Y-94040000D01*
X179190000Y-94040000D02*
X179190000Y-83760000D01*
X179190000Y-83760000D02*
X143390000Y-83760000D01*
X143390000Y-83760000D02*
X143390000Y-94040000D01*
X142500000Y-82750000D02*
X142500000Y-87870000D01*
X139880000Y-82750000D02*
X139880000Y-87870000D01*
X142500000Y-82750000D02*
X139880000Y-82750000D01*
X142500000Y-87870000D02*
X139880000Y-87870000D01*
X172700000Y-80270000D02*
X177820000Y-80270000D01*
X172700000Y-82890000D02*
X177820000Y-82890000D01*
X172700000Y-80270000D02*
X172700000Y-82890000D01*
X177820000Y-80270000D02*
X177820000Y-82890000D01*
X179920000Y-80360000D02*
X185040000Y-80360000D01*
X179920000Y-82980000D02*
X185040000Y-82980000D01*
X179920000Y-80360000D02*
X179920000Y-82980000D01*
X185040000Y-80360000D02*
X185040000Y-82980000D01*
X178860000Y-94870000D02*
X183980000Y-94870000D01*
X178860000Y-97490000D02*
X183980000Y-97490000D01*
X178860000Y-94870000D02*
X178860000Y-97490000D01*
X183980000Y-94870000D02*
X183980000Y-97490000D01*
X178210000Y-97510000D02*
X173090000Y-97510000D01*
X178210000Y-94890000D02*
X173090000Y-94890000D01*
X178210000Y-97510000D02*
X178210000Y-94890000D01*
X173090000Y-97510000D02*
X173090000Y-94890000D01*
X132810000Y-93160000D02*
X132810000Y-95280000D01*
X132810000Y-95280000D02*
X136930000Y-95280000D01*
X136930000Y-95280000D02*
X136930000Y-93160000D01*
X136930000Y-93160000D02*
X132810000Y-93160000D01*
X132040000Y-94220000D02*
X132810000Y-94220000D01*
X137700000Y-94220000D02*
X136930000Y-94220000D01*
X133470000Y-93160000D02*
X133470000Y-95280000D01*
X138890000Y-84140000D02*
X139220000Y-84140000D01*
X139220000Y-84140000D02*
X139220000Y-90560000D01*
X139220000Y-90560000D02*
X138890000Y-90560000D01*
X136930000Y-84140000D02*
X136600000Y-84140000D01*
X136600000Y-84140000D02*
X136600000Y-90560000D01*
X136600000Y-90560000D02*
X136930000Y-90560000D01*
X185720000Y-93120000D02*
X185720000Y-97620000D01*
X189720000Y-91870000D02*
X188220000Y-91870000D01*
X192220000Y-97620000D02*
X192220000Y-93120000D01*
X188220000Y-98870000D02*
X189720000Y-98870000D01*
X135980000Y-82690000D02*
X135980000Y-92930000D01*
X131339000Y-82690000D02*
X131339000Y-92930000D01*
X135980000Y-82690000D02*
X131339000Y-82690000D01*
X135980000Y-92930000D02*
X131339000Y-92930000D01*
X134470000Y-82690000D02*
X134470000Y-92930000D01*
X135980000Y-85960000D02*
X134470000Y-85960000D01*
X135980000Y-89661000D02*
X134470000Y-89661000D01*
X184985000Y-85875000D02*
X184985000Y-92125000D01*
X179935000Y-85875000D02*
X179935000Y-92125000D01*
X179935000Y-85875000D02*
G75*
G02X184985000Y-85875000I2525000J0D01*
G01*
X179935000Y-92125000D02*
G75*
G03X184985000Y-92125000I2525000J0D01*
G01*
X142490000Y-89210000D02*
X142490000Y-94330000D01*
X139870000Y-89210000D02*
X139870000Y-94330000D01*
X142490000Y-89210000D02*
X142176000Y-89210000D01*
X140184000Y-89210000D02*
X139870000Y-89210000D01*
X142490000Y-94330000D02*
X142176000Y-94330000D01*
X140184000Y-94330000D02*
X139870000Y-94330000D01*
D11*
X125095000Y-88900000D02*
G75*
G03X125095000Y-88900000I-635000J0D01*
G01*
X125095000Y-91440000D02*
G75*
G03X125095000Y-91440000I-635000J0D01*
G01*
X127635000Y-91440000D02*
G75*
G03X127635000Y-91440000I-635000J0D01*
G01*
X127635000Y-88900000D02*
G75*
G03X127635000Y-88900000I-635000J0D01*
G01*
X127635000Y-86360000D02*
G75*
G03X127635000Y-86360000I-635000J0D01*
G01*
X125095000Y-86360000D02*
G75*
G03X125095000Y-86360000I-635000J0D01*
G01*
X143653334Y-83397143D02*
X143605715Y-83444762D01*
X143462858Y-83492381D01*
X143367620Y-83492381D01*
X143224762Y-83444762D01*
X143129524Y-83349524D01*
X143081905Y-83254286D01*
X143034286Y-83063810D01*
X143034286Y-82920952D01*
X143081905Y-82730476D01*
X143129524Y-82635238D01*
X143224762Y-82540000D01*
X143367620Y-82492381D01*
X143462858Y-82492381D01*
X143605715Y-82540000D01*
X143653334Y-82587619D01*
X144605715Y-83492381D02*
X144034286Y-83492381D01*
X144320000Y-83492381D02*
X144320000Y-82492381D01*
X144224762Y-82635238D01*
X144129524Y-82730476D01*
X144034286Y-82778095D01*
X174818334Y-79072143D02*
X174770715Y-79119762D01*
X174627858Y-79167381D01*
X174532620Y-79167381D01*
X174389762Y-79119762D01*
X174294524Y-79024524D01*
X174246905Y-78929286D01*
X174199286Y-78738810D01*
X174199286Y-78595952D01*
X174246905Y-78405476D01*
X174294524Y-78310238D01*
X174389762Y-78215000D01*
X174532620Y-78167381D01*
X174627858Y-78167381D01*
X174770715Y-78215000D01*
X174818334Y-78262619D01*
X175151667Y-78167381D02*
X175770715Y-78167381D01*
X175437381Y-78548333D01*
X175580239Y-78548333D01*
X175675477Y-78595952D01*
X175723096Y-78643571D01*
X175770715Y-78738810D01*
X175770715Y-78976905D01*
X175723096Y-79072143D01*
X175675477Y-79119762D01*
X175580239Y-79167381D01*
X175294524Y-79167381D01*
X175199286Y-79119762D01*
X175151667Y-79072143D01*
X182283334Y-79087143D02*
X182235715Y-79134762D01*
X182092858Y-79182381D01*
X181997620Y-79182381D01*
X181854762Y-79134762D01*
X181759524Y-79039524D01*
X181711905Y-78944286D01*
X181664286Y-78753810D01*
X181664286Y-78610952D01*
X181711905Y-78420476D01*
X181759524Y-78325238D01*
X181854762Y-78230000D01*
X181997620Y-78182381D01*
X182092858Y-78182381D01*
X182235715Y-78230000D01*
X182283334Y-78277619D01*
X183140477Y-78515714D02*
X183140477Y-79182381D01*
X182902381Y-78134762D02*
X182664286Y-78849048D01*
X183283334Y-78849048D01*
X181453334Y-98887143D02*
X181405715Y-98934762D01*
X181262858Y-98982381D01*
X181167620Y-98982381D01*
X181024762Y-98934762D01*
X180929524Y-98839524D01*
X180881905Y-98744286D01*
X180834286Y-98553810D01*
X180834286Y-98410952D01*
X180881905Y-98220476D01*
X180929524Y-98125238D01*
X181024762Y-98030000D01*
X181167620Y-97982381D01*
X181262858Y-97982381D01*
X181405715Y-98030000D01*
X181453334Y-98077619D01*
X182358096Y-97982381D02*
X181881905Y-97982381D01*
X181834286Y-98458571D01*
X181881905Y-98410952D01*
X181977143Y-98363333D01*
X182215239Y-98363333D01*
X182310477Y-98410952D01*
X182358096Y-98458571D01*
X182405715Y-98553810D01*
X182405715Y-98791905D01*
X182358096Y-98887143D01*
X182310477Y-98934762D01*
X182215239Y-98982381D01*
X181977143Y-98982381D01*
X181881905Y-98934762D01*
X181834286Y-98887143D01*
X175493334Y-98777143D02*
X175445715Y-98824762D01*
X175302858Y-98872381D01*
X175207620Y-98872381D01*
X175064762Y-98824762D01*
X174969524Y-98729524D01*
X174921905Y-98634286D01*
X174874286Y-98443810D01*
X174874286Y-98300952D01*
X174921905Y-98110476D01*
X174969524Y-98015238D01*
X175064762Y-97920000D01*
X175207620Y-97872381D01*
X175302858Y-97872381D01*
X175445715Y-97920000D01*
X175493334Y-97967619D01*
X176350477Y-97872381D02*
X176160000Y-97872381D01*
X176064762Y-97920000D01*
X176017143Y-97967619D01*
X175921905Y-98110476D01*
X175874286Y-98300952D01*
X175874286Y-98681905D01*
X175921905Y-98777143D01*
X175969524Y-98824762D01*
X176064762Y-98872381D01*
X176255239Y-98872381D01*
X176350477Y-98824762D01*
X176398096Y-98777143D01*
X176445715Y-98681905D01*
X176445715Y-98443810D01*
X176398096Y-98348571D01*
X176350477Y-98300952D01*
X176255239Y-98253333D01*
X176064762Y-98253333D01*
X175969524Y-98300952D01*
X175921905Y-98348571D01*
X175874286Y-98443810D01*
X134131905Y-94672381D02*
X134131905Y-93672381D01*
X134370000Y-93672381D01*
X134512858Y-93720000D01*
X134608096Y-93815238D01*
X134655715Y-93910476D01*
X134703334Y-94100952D01*
X134703334Y-94243810D01*
X134655715Y-94434286D01*
X134608096Y-94529524D01*
X134512858Y-94624762D01*
X134370000Y-94672381D01*
X134131905Y-94672381D01*
X135655715Y-94672381D02*
X135084286Y-94672381D01*
X135370000Y-94672381D02*
X135370000Y-93672381D01*
X135274762Y-93815238D01*
X135179524Y-93910476D01*
X135084286Y-93958095D01*
X138502381Y-87886666D02*
X138026190Y-88220000D01*
X138502381Y-88458095D02*
X137502381Y-88458095D01*
X137502381Y-88077142D01*
X137550000Y-87981904D01*
X137597619Y-87934285D01*
X137692857Y-87886666D01*
X137835714Y-87886666D01*
X137930952Y-87934285D01*
X137978571Y-87981904D01*
X138026190Y-88077142D01*
X138026190Y-88458095D01*
X138502381Y-86934285D02*
X138502381Y-87505714D01*
X138502381Y-87220000D02*
X137502381Y-87220000D01*
X137645238Y-87315238D01*
X137740476Y-87410476D01*
X137788095Y-87505714D01*
X189404762Y-96703333D02*
X189452381Y-96560476D01*
X189452381Y-96322380D01*
X189404762Y-96227142D01*
X189357143Y-96179523D01*
X189261905Y-96131904D01*
X189166667Y-96131904D01*
X189071429Y-96179523D01*
X189023810Y-96227142D01*
X188976190Y-96322380D01*
X188928571Y-96512857D01*
X188880952Y-96608095D01*
X188833333Y-96655714D01*
X188738095Y-96703333D01*
X188642857Y-96703333D01*
X188547619Y-96655714D01*
X188500000Y-96608095D01*
X188452381Y-96512857D01*
X188452381Y-96274761D01*
X188500000Y-96131904D01*
X188452381Y-95798571D02*
X189452381Y-95560476D01*
X188738095Y-95369999D01*
X189452381Y-95179523D01*
X188452381Y-94941428D01*
X189452381Y-94036666D02*
X189452381Y-94608095D01*
X189452381Y-94322381D02*
X188452381Y-94322381D01*
X188595238Y-94417619D01*
X188690476Y-94512857D01*
X188738095Y-94608095D01*
X182336190Y-89466191D02*
X182812381Y-89466191D01*
X181812381Y-89799524D02*
X182336190Y-89466191D01*
X181812381Y-89132857D01*
X182812381Y-88275714D02*
X182812381Y-88847143D01*
X182812381Y-88561429D02*
X181812381Y-88561429D01*
X181955238Y-88656667D01*
X182050476Y-88751905D01*
X182098095Y-88847143D01*
X141552143Y-91871666D02*
X141599762Y-91919285D01*
X141647381Y-92062142D01*
X141647381Y-92157380D01*
X141599762Y-92300238D01*
X141504524Y-92395476D01*
X141409286Y-92443095D01*
X141218810Y-92490714D01*
X141075952Y-92490714D01*
X140885476Y-92443095D01*
X140790238Y-92395476D01*
X140695000Y-92300238D01*
X140647381Y-92157380D01*
X140647381Y-92062142D01*
X140695000Y-91919285D01*
X140742619Y-91871666D01*
X140742619Y-91490714D02*
X140695000Y-91443095D01*
X140647381Y-91347857D01*
X140647381Y-91109761D01*
X140695000Y-91014523D01*
X140742619Y-90966904D01*
X140837857Y-90919285D01*
X140933095Y-90919285D01*
X141075952Y-90966904D01*
X141647381Y-91538333D01*
X141647381Y-90919285D01*
X124745715Y-84272381D02*
X124174286Y-84272381D01*
X124460000Y-84272381D02*
X124460000Y-83272381D01*
X124364762Y-83415238D01*
X124269524Y-83510476D01*
X124174286Y-83558095D01*
M02*
