M48
;DRILL file {KiCad 4.0.7} date 10/22/21 20:29:59
;FORMAT={-:-/ absolute / inch / decimal}
FMAT,2
INCH,TZ
T1C0.016
T2C0.030
T3C0.031
T4C0.039
T5C0.043
%
G90
G05
M72
T1
X4.8689Y-3.728
X4.9Y-3.8
X4.92Y-3.84
X4.96Y-3.88
X5.02Y-3.9
X5.0689Y-3.576
X5.08Y-3.92
X5.0886Y-3.5244
X5.1083Y-3.3701
X5.1272Y-3.3142
X5.137Y-3.2394
X5.16Y-3.9
X5.1807Y-3.1744
X5.2118Y-3.1472
X5.2673Y-3.1382
X5.2854Y-3.9008
X5.3768Y-3.3827
X5.3819Y-3.9
X5.42Y-3.9
X5.4957Y-3.3925
X5.5Y-3.9
X5.5976Y-3.8996
X5.6854Y-3.4646
X5.7043Y-3.9035
X5.7268Y-3.4177
X5.8098Y-3.902
X5.8189Y-3.4177
X5.8992Y-3.4165
X5.9016Y-3.9079
X5.9685Y-3.4201
X6.0059Y-3.9071
X6.0457Y-3.4244
X6.098Y-3.876
X6.1236Y-3.4287
X6.2394Y-3.4264
X6.2984Y-3.5402
X6.3106Y-3.4583
X6.5622Y-3.5949
X6.6571Y-3.4839
X6.7016Y-3.0504
X6.7453Y-3.4571
X6.7469Y-3.072
X6.7504Y-3.6118
X6.7992Y-3.0976
X6.8409Y-3.8535
X7.0201Y-3.0618
X7.0846Y-3.061
X7.16Y-3.06
X7.25Y-3.06
X7.3116Y-3.0615
X7.32Y-3.3
X7.36Y-3.36
X7.4Y-3.44
X7.4Y-3.54
X7.4116Y-3.0615
X7.44Y-3.58
X7.46Y-3.64
X7.46Y-3.72
X7.46Y-3.8
T2
X4.9Y-3.4
X4.9Y-3.5
X4.9Y-3.6
X5.Y-3.4
X5.Y-3.5
X5.Y-3.6
X7.5Y-3.1
X7.5Y-3.2
X7.5Y-3.3
X7.5Y-3.4
X7.5Y-3.5
T3
X5.1598Y-3.7094
X5.25Y-3.2
X5.25Y-3.8
X5.35Y-3.2
X5.35Y-3.8
X5.4295Y-3.289
X5.4295Y-3.589
X5.45Y-3.2
X5.45Y-3.8
X5.4598Y-3.7094
X5.55Y-3.2
X5.55Y-3.8
X5.5583Y-3.5146
X5.5583Y-3.7114
X5.5587Y-3.3094
X5.5587Y-3.4079
X5.65Y-3.2
X5.65Y-3.8
X5.7Y-3.35
X5.7Y-3.65
X5.75Y-3.2
X5.75Y-3.8
X5.8Y-3.35
X5.8Y-3.65
X5.85Y-3.2
X5.85Y-3.8
X5.9Y-3.35
X5.9Y-3.65
X5.95Y-3.2
X5.95Y-3.8
X6.Y-3.35
X6.Y-3.65
X6.05Y-3.2
X6.05Y-3.8
X6.1Y-3.35
X6.1Y-3.65
X6.15Y-3.2
X6.15Y-3.8
X6.2Y-3.35
X6.2Y-3.65
X6.25Y-3.2
X6.25Y-3.8
X6.3Y-3.35
X6.3Y-3.65
X6.35Y-3.2
X6.35Y-3.8
X6.4Y-3.35
X6.4Y-3.65
X6.4039Y-3.4488
X6.45Y-3.2
X6.45Y-3.8
X6.5Y-3.35
X6.5Y-3.65
X6.5024Y-3.4488
X6.55Y-3.2
X6.55Y-3.8
X6.6Y-3.35
X6.6Y-3.65
X6.65Y-3.2
X6.65Y-3.8
X6.7Y-3.35
X6.7Y-3.65
X6.8Y-3.35
X6.8Y-3.65
X6.815Y-3.2118
X6.8661Y-3.7874
X6.9Y-3.35
X6.9Y-3.65
X6.9134Y-3.2118
X6.9646Y-3.7874
X7.Y-3.35
X7.Y-3.65
X7.0933Y-3.7866
X7.135Y-3.2154
X7.1835Y-3.4079
X7.1835Y-3.6
X7.1917Y-3.7866
X7.2335Y-3.2154
T4
X5.2504Y-3.3571
X5.2504Y-3.4571
X5.2504Y-3.5571
T5
X7.3512Y-3.6268
X7.3512Y-3.8827
X7.5283Y-3.6268
X7.5283Y-3.8827
T0
M30
